<svg width="16" height="17" viewBox="0 0 16 17" fill="none" xmlns="http://www.w3.org/2000/svg">
<path d="M15.2756 13.51C14.7755 13.0643 14.3378 12.5532 13.9741 11.9907C13.577 11.2143 13.339 10.3663 13.2741 9.49667V6.93519C13.2775 5.56921 12.782 4.24899 11.8807 3.22258C10.9793 2.19617 9.73423 1.53422 8.37926 1.36111V0.692222C8.37926 0.508633 8.30633 0.332564 8.17651 0.202747C8.04669 0.0729304 7.87063 0 7.68704 0C7.50345 0 7.32738 0.0729304 7.19756 0.202747C7.06775 0.332564 6.99482 0.508633 6.99482 0.692222V1.37148C5.65199 1.55707 4.42191 2.22302 3.53242 3.24598C2.64293 4.26894 2.1543 5.57959 2.15704 6.93519V9.49667C2.0921 10.3663 1.85411 11.2143 1.45704 11.9907C1.09972 12.552 0.66899 13.0629 0.176296 13.51C0.120987 13.5586 0.0766585 13.6184 0.0462609 13.6855C0.0158633 13.7525 9.32277e-05 13.8253 0 13.8989V14.6041C0 14.7416 0.0546294 14.8735 0.151871 14.9707C0.249112 15.068 0.380999 15.1226 0.518519 15.1226H14.9333C15.0709 15.1226 15.2027 15.068 15.3 14.9707C15.3972 14.8735 15.4519 14.7416 15.4519 14.6041V13.8989C15.4518 13.8253 15.436 13.7525 15.4056 13.6855C15.3752 13.6184 15.3309 13.5586 15.2756 13.51ZM1.07852 14.0856C1.56095 13.6195 1.98572 13.0973 2.3437 12.53C2.84387 11.5922 3.13571 10.5576 3.19926 9.49667V6.93519C3.1787 6.3275 3.28063 5.72189 3.49899 5.15442C3.71735 4.58695 4.04767 4.06922 4.47028 3.63207C4.89289 3.19491 5.39915 2.84727 5.95891 2.60985C6.51867 2.37242 7.12049 2.25006 7.72852 2.25006C8.33655 2.25006 8.93837 2.37242 9.49813 2.60985C10.0579 2.84727 10.5641 3.19491 10.9868 3.63207C11.4094 4.06922 11.7397 4.58695 11.9581 5.15442C12.1764 5.72189 12.2783 6.3275 12.2578 6.93519V9.49667C12.3213 10.5576 12.6132 11.5922 13.1133 12.53C13.4713 13.0973 13.8961 13.6195 14.3785 14.0856H1.07852Z" fill="#FBFBFB"/>
<path d="M7.38963 16.1822C7.71626 16.1747 8.02971 16.0519 8.27453 15.8355C8.51935 15.6192 8.67977 15.3232 8.72741 15H6C6.04899 15.332 6.21691 15.6349 6.47253 15.8524C6.72815 16.0699 7.05406 16.1871 7.38963 16.1822Z" fill="#FBFBFB"/>
</svg>
