<svg width="29" height="29" viewBox="0 0 29 29" fill="none" xmlns="http://www.w3.org/2000/svg">
<path d="M19.3307 21.75L22.9557 18.125M22.9557 18.125L26.5807 21.75M22.9557 18.125V25.375M14.4974 18.7292H9.0599C7.37359 18.7292 6.53044 18.7292 5.84435 18.9373C4.29961 19.4059 3.09078 20.6147 2.62219 22.1595C2.41406 22.8455 2.41406 23.6887 2.41406 25.375M17.5182 9.0625C17.5182 12.0655 15.0838 14.5 12.0807 14.5C9.07768 14.5 6.64323 12.0655 6.64323 9.0625C6.64323 6.05945 9.07768 3.625 12.0807 3.625C15.0838 3.625 17.5182 6.05945 17.5182 9.0625Z" stroke="#FF00FE" stroke-width="1.5" stroke-linecap="round" stroke-linejoin="round"/>
</svg>
